<?xml version="1.0" standalone="no"?>
<!DOCTYPE svg PUBLIC "-//W3C//DTD SVG 20010904//EN"
 "http://www.w3.org/TR/2001/REC-SVG-20010904/DTD/svg10.dtd">
<svg version="1.0" xmlns="http://www.w3.org/2000/svg"
 width="653.000000pt" height="914.000000pt" viewBox="0 0 653.000000 914.000000"
 preserveAspectRatio="xMidYMid meet">

<g transform="translate(0.000000,914.000000) scale(0.100000,-0.100000)"
fill="#000000" stroke="none">
<path d="M1610 8517 c-25 -8 -72 -22 -105 -32 -92 -27 -146 -58 -198 -114 -55
-59 -88 -124 -114 -226 -17 -67 -18 -237 -18 -3550 0 -3339 1 -3483 18 -3560
53 -232 188 -385 375 -424 67 -14 2045 -16 2023 -2 -8 5 -38 10 -65 10 -28 0
-67 5 -86 11 -19 5 -36 7 -37 3 -2 -5 -42 -8 -90 -8 -109 1 -175 28 -249 102
-83 83 -129 194 -156 382 -18 121 -18 5947 0 6063 24 160 77 265 164 328 44
32 189 82 291 100 78 15 146 4 367 -59 96 -27 176 -48 177 -47 2 1 -6 34 -17
72 -60 217 -179 360 -353 424 -47 17 -436 138 -1372 427 -291 89 -352 105
-425 109 -54 2 -101 -1 -130 -9z m125 -7 c-3 -5 -18 -10 -32 -10 -97 0 -205
-122 -249 -279 -12 -45 -12 -45 -13 -11 0 19 4 56 8 83 4 26 7 47 6 47 -1 0
-14 -18 -29 -40 l-27 -40 -69 3 c-39 2 -72 6 -75 9 -8 7 54 87 85 110 14 10
52 25 85 33 33 9 65 17 70 19 6 2 13 4 17 5 5 1 35 15 67 32 76 40 171 64 156
39z m83 -136 c-4 -3 -12 -7 -20 -8 -31 -5 -58 -18 -58 -27 0 -6 -5 -7 -12 -3
-6 4 -8 3 -5 -3 4 -6 -3 -19 -14 -29 -19 -17 -20 -17 -13 2 11 32 -46 -48 -72
-101 -14 -27 -30 -68 -36 -90 l-11 -40 -7 32 c-11 49 3 103 42 163 41 65 55
78 105 96 38 13 112 19 101 8z m17 -94 c-3 -5 -16 -15 -28 -21 -21 -10 -21 -9
2 10 25 23 36 27 26 11z m-45 -44 c0 -2 -8 -10 -17 -17 -16 -13 -17 -12 -4 4
13 16 21 21 21 13z m-353 -98 c-3 -7 -5 -2 -5 12 0 14 2 19 5 13 2 -7 2 -19 0
-25z m1010 -150 c74 -51 98 -193 43 -248 -64 -64 -160 28 -160 154 0 56 18 92
54 106 29 12 26 13 63 -12z m-147 -462 c0 -3 -15 -14 -32 -26 l-33 -22 28 26
c27 25 37 31 37 22z m130 -416 c0 -5 -4 -10 -10 -10 -5 0 -10 5 -10 10 0 6 5
10 10 10 6 0 10 -4 10 -10z"/>
<path d="M3366 7556 c-89 -33 -172 -158 -198 -299 -11 -59 -13 -622 -13 -3107
0 -2866 1 -3039 18 -3115 35 -160 125 -298 227 -350 88 -45 121 -46 920 -43
l755 3 52 24 c100 45 172 146 210 296 17 66 18 211 18 2875 0 2669 -1 2809
-18 2890 -37 173 -137 326 -254 387 -68 36 -130 55 -638 198 -209 59 -490 139
-625 178 -270 77 -376 92 -454 63z m269 -122 c28 -8 203 -57 390 -109 187 -52
405 -112 485 -135 80 -22 219 -61 309 -86 221 -61 262 -78 320 -130 61 -55
113 -155 139 -264 16 -70 17 -251 17 -2850 0 -2629 -1 -2779 -18 -2851 -34
-147 -114 -238 -224 -256 -34 -5 -356 -7 -798 -3 -843 7 -798 2 -888 92 -51
51 -85 116 -108 208 -21 82 -21 6107 0 6190 26 106 81 180 153 207 41 16 153
9 223 -13z"/>
<path d="M4032 7220 c-28 -12 -52 -66 -52 -117 0 -45 28 -110 58 -137 22 -19
474 -146 520 -146 13 0 34 11 47 25 49 48 26 197 -37 237 -13 8 -126 43 -253
78 -278 76 -255 71 -283 60z"/>
<path d="M3505 6380 c3 -5 8 -10 11 -10 2 0 4 5 4 10 0 6 -5 10 -11 10 -5 0
-7 -4 -4 -10z"/>
<path d="M3501 6340 c11 -6 15 -18 12 -35 -3 -13 -9 -22 -14 -19 -5 3 -9 -2
-9 -10 0 -8 4 -17 9 -20 5 -3 5 -21 1 -40 -4 -19 -5 -37 -3 -40 3 -3 5 -25 5
-48 -1 -48 10 -74 27 -64 17 11 14 101 -4 116 -8 7 -12 17 -9 22 4 5 7 41 8
79 2 64 1 69 -18 69 -18 -1 -19 -2 -5 -10z"/>
<path d="M3526 6053 c-11 -11 -6 -23 9 -23 8 0 15 4 15 9 0 13 -16 22 -24 14z"/>
<path d="M3501 6034 c0 -11 3 -14 6 -6 3 7 2 16 -1 19 -3 4 -6 -2 -5 -13z"/>
<path d="M3524 6013 c4 -7 3 -13 -2 -13 -12 0 -6 -100 7 -113 7 -7 5 -14 -6
-22 -11 -8 -13 -17 -7 -26 5 -8 14 -37 19 -66 11 -50 10 -55 -36 -160 -79
-178 -109 -349 -109 -610 0 -132 22 -448 37 -543 4 -25 6 -49 5 -53 -4 -15 18
-132 34 -184 12 -38 21 -51 34 -50 10 1 17 4 14 9 -2 4 5 12 16 18 11 6 20 20
20 30 0 11 4 20 9 20 5 0 12 12 15 26 4 15 14 33 22 42 11 10 12 18 5 25 -6 6
-11 16 -11 21 0 6 5 4 10 -4 7 -11 12 -12 20 -4 8 8 7 14 -5 24 -25 21 -17 34
10 16 22 -14 25 -15 25 -1 0 8 7 15 15 15 17 0 10 26 -14 50 -13 13 -13 15 2
18 21 4 22 22 2 22 -8 0 -15 5 -15 11 0 6 9 8 20 4 22 -7 28 10 6 18 -7 3 -16
17 -18 32 -5 22 -2 26 13 22 15 -4 17 -2 9 13 -6 11 -6 21 -1 24 5 4 11 1 13
-5 2 -6 3 8 3 31 0 23 -1 37 -3 31 -6 -18 -19 -12 -25 10 -4 15 -2 19 9 15 9
-3 14 1 14 14 0 13 -5 18 -15 14 -13 -5 -14 -2 -5 20 6 17 6 35 0 52 -6 14
-10 40 -10 59 0 18 -6 36 -12 38 -10 4 -10 8 -1 14 7 5 11 44 12 103 0 52 5
118 11 145 30 156 43 211 51 216 6 3 11 21 13 40 5 45 16 70 28 63 5 -3 9 2 8
12 -5 44 1 62 21 67 15 4 20 11 16 21 -4 10 -1 16 8 16 9 0 15 10 15 26 0 14
4 23 9 20 5 -3 29 17 55 44 25 27 46 47 46 45 0 -3 29 11 65 30 35 19 75 35
89 35 14 0 27 4 31 9 3 5 50 13 105 16 70 5 100 11 100 20 0 14 -31 25 -71 25
-14 0 -43 11 -63 25 -20 14 -41 25 -45 25 -5 0 -24 -14 -42 -31 -53 -49 -86
-49 -170 2 -70 42 -72 42 -117 30 -63 -16 -153 -74 -208 -133 -25 -27 -48 -47
-51 -44 -3 2 -2 10 2 17 10 15 12 99 3 99 -5 0 -8 17 -8 38 0 20 -4 44 -10 52
-6 9 -5 19 2 28 9 10 7 17 -7 30 -10 9 -15 11 -11 5z"/>
<path d="M4335 5830 c3 -5 8 -10 11 -10 2 0 4 5 4 10 0 6 -5 10 -11 10 -5 0
-7 -4 -4 -10z"/>
<path d="M5126 4375 c-4 -19 -10 -35 -15 -35 -7 0 -11 -15 -12 -52 0 -10 -4
-20 -10 -23 -5 -4 -9 -24 -9 -46 0 -28 -4 -38 -12 -33 -7 4 -8 3 -4 -5 4 -6 0
-25 -8 -43 -9 -17 -16 -40 -16 -51 0 -25 -58 -147 -71 -147 -5 0 -9 -6 -9 -14
0 -13 -59 -64 -68 -58 -3 2 -9 -3 -14 -12 -5 -9 -13 -14 -17 -11 -5 2 -19 -6
-32 -19 -14 -13 -35 -26 -49 -28 -15 -2 -24 -9 -22 -17 4 -19 -27 -51 -44 -44
-22 8 -16 25 6 18 11 -4 20 -2 20 4 0 6 -18 10 -40 9 -22 -1 -40 -5 -40 -10 0
-4 5 -8 10 -8 6 0 10 -4 10 -10 0 -5 -9 -10 -20 -10 -11 0 -20 -7 -20 -15 0
-8 -4 -15 -10 -15 -5 0 -10 6 -10 14 0 21 -32 29 -49 12 -18 -19 -7 -34 12
-18 8 7 17 9 20 5 9 -9 -13 -33 -30 -33 -11 0 -9 -7 7 -27 12 -16 29 -28 38
-28 10 0 17 -8 17 -17 0 -24 13 -33 29 -19 8 7 17 8 20 3 3 -6 -2 -13 -11 -17
-16 -6 -15 -8 6 -24 15 -12 22 -24 18 -34 -4 -12 -2 -14 10 -10 13 5 15 2 9
-13 -4 -12 3 -8 18 11 19 22 25 26 26 13 0 -9 -4 -20 -10 -23 -5 -3 -10 -11
-10 -16 0 -6 4 -7 10 -4 5 3 24 -8 41 -25 18 -16 36 -30 40 -30 5 0 9 -7 9
-15 0 -13 4 -14 20 -5 15 8 18 8 14 -3 -3 -8 2 -22 11 -31 9 -9 13 -20 10 -26
-3 -5 3 -10 15 -10 13 0 20 -5 17 -12 -2 -7 3 -24 13 -38 18 -27 44 -174 45
-255 0 -27 3 -52 7 -56 4 -3 3 -21 -2 -40 -6 -18 -11 -62 -11 -96 -1 -41 -5
-63 -12 -63 -8 0 -7 -3 2 -9 9 -6 10 -14 3 -27 -5 -11 -9 -31 -7 -46 2 -21 -1
-28 -13 -28 -14 0 -14 -2 -3 -9 9 -6 10 -11 2 -15 -6 -4 -9 -11 -6 -16 3 -5 1
-11 -5 -15 -6 -4 -8 -11 -5 -16 4 -5 1 -9 -6 -9 -16 0 -3 -13 16 -16 10 -2 15
7 15 24 0 19 3 23 9 13 6 -9 11 3 16 35 4 27 11 56 15 64 9 17 46 193 54 255
3 22 9 67 15 100 9 57 19 154 41 380 11 109 36 480 45 670 6 127 -3 305 -15
305 -4 0 -11 -16 -14 -35z m-418 -690 c-3 -3 -9 2 -12 12 -6 14 -5 15 5 6 7
-7 10 -15 7 -18z"/>
<path d="M4565 3770 c3 -5 8 -10 11 -10 2 0 4 5 4 10 0 6 -5 10 -11 10 -5 0
-7 -4 -4 -10z"/>
<path d="M4523 3715 c0 -8 4 -15 8 -15 4 0 9 7 13 15 3 9 0 15 -8 15 -7 0 -13
-7 -13 -15z"/>
<path d="M4916 2521 c-16 -17 -16 -19 4 -24 16 -4 20 0 20 19 0 29 -2 29 -24
5z"/>
<path d="M4900 2460 c0 -11 2 -20 4 -20 2 0 6 9 9 20 3 11 1 20 -4 20 -5 0 -9
-9 -9 -20z"/>
<path d="M4865 2410 c3 -5 8 -10 11 -10 2 0 4 5 4 10 0 6 -5 10 -11 10 -5 0
-7 -4 -4 -10z"/>
<path d="M4845 2350 c-3 -5 -1 -10 4 -10 6 0 11 5 11 10 0 6 -2 10 -4 10 -3 0
-8 -4 -11 -10z"/>
<path d="M3016 6249 c11 -18 4 -232 -8 -246 -24 -29 -33 -5 -39 108 l-5 114 0
-120 c1 -118 1 -120 25 -123 13 -2 27 0 31 5 5 4 9 58 10 118 2 146 2 155 -11
155 -5 0 -7 -5 -3 -11z"/>
<path d="M3019 5732 c22 -17 22 -21 19 -255 l-3 -239 -30 -24 c-18 -14 -24
-24 -15 -24 53 1 60 33 60 290 0 233 -5 270 -36 270 -13 0 -11 -4 5 -18z"/>
<path d="M3018 5050 c21 -20 22 -27 22 -243 0 -238 -4 -261 -50 -285 l-25 -13
30 3 c50 5 55 27 55 283 0 193 -3 234 -16 253 -8 12 -20 22 -26 22 -7 0 -2 -9
10 -20z"/>
<path d="M2986 2071 c-9 -14 5 -42 18 -38 15 5 14 39 -1 44 -6 2 -14 0 -17 -6z"/>
<path d="M2960 1085 c0 -11 11 -15 40 -15 22 0 43 0 48 -1 4 0 8 7 10 15 3 13
-7 16 -47 16 -39 0 -51 -4 -51 -15z"/>
<path d="M3077 1093 c-3 -5 -2 -15 2 -22 7 -10 10 -10 16 -1 4 6 3 16 -3 22
-5 5 -12 6 -15 1z"/>
<path d="M5005 619 c-22 -4 -343 -8 -713 -8 -370 1 -676 -2 -680 -5 -3 -4 313
-5 703 -4 522 2 717 6 735 15 29 14 12 14 -45 2z"/>
</g>
</svg>
